PathFileType	4	(X/Y/Z)	s08c0001.trc
DataRate	CameraRate	NumFrames	NumMarkers	Units	OrigDataRate	OrigDataStartFrame	OrigNumFrames
200	200	5	49	mm	200	1250	2000
Frame#	Time	racr			lacr			c7			jug			rlel			rdr			llel			ldr			s2			lic			ric			lasi			rasi			rpsi			lpsi			rgt			lgt			rth1			rth2			rth3			rth4			rlfc			rmfc			rsh1			rsh2			rsh3			rsh4			rlmal			rmmal			rcal			rtoe			rmt5			rmt1			lth1			lth2			lth4			lth3			llfc			lmfc			llmal			lmmal			lcal			lmt1			lmt5			lsh1			lsh2			lsh3			lsh4			ltoe			
		X1	Y1	Z1	X2	Y2	Z2	X3	Y3	Z3	X4	Y4	Z4	X5	Y5	Z5	X6	Y6	Z6	X7	Y7	Z7	X8	Y8	Z8	X9	Y9	Z9	X10	Y10	Z10	X11	Y11	Z11	X12	Y12	Z12	X13	Y13	Z13	X14	Y14	Z14	X15	Y15	Z15	X16	Y16	Z16	X17	Y17	Z17	X18	Y18	Z18	X19	Y19	Z19	X20	Y20	Z20	X21	Y21	Z21	X22	Y22	Z22	X23	Y23	Z23	X24	Y24	Z24	X25	Y25	Z25	X26	Y26	Z26	X27	Y27	Z27	X28	Y28	Z28	X29	Y29	Z29	X30	Y30	Z30	X31	Y31	Z31	X32	Y32	Z32	X33	Y33	Z33	X34	Y34	Z34	X35	Y35	Z35	X36	Y36	Z36	X37	Y37	Z37	X38	Y38	Z38	X39	Y39	Z39	X40	Y40	Z40	X41	Y41	Z41	X42	Y42	Z42	X43	Y43	Z43	X44	Y44	Z44	X45	Y45	Z45	X46	Y46	Z46	X47	Y47	Z47	X48	Y48	Z48	X49	Y49	Z49	
1250	6.2500	420.340240	1530.107788	594.194580	408.462799	1544.713745	197.277817	361.328796	1583.827271	394.416840	492.390778	1487.929932	392.997406	379.983368	1237.058838	681.014282	455.091644	960.719788	793.305359	387.572968	1244.484253	96.397514	445.848022	973.763428	-8.310409	327.790192	1028.556885	403.729950	474.986908	1094.036133	238.023407	480.902374	1100.355103	554.827637	524.087524	1036.457031	268.731232	536.888611	1033.964355	520.284363	349.788361	1068.181641	451.464355	348.357513	1075.852783	352.128510	423.882690	955.722290	576.625549	428.266205	943.755127	211.402100	436.791962	804.250854	592.541443	458.459106	718.480896	588.218811	495.388977	719.117493	579.901611	435.449982	635.205750	578.256775	438.963715	511.958221	559.081787	423.253937	499.957428	455.583649	399.085358	387.348602	593.586670	421.975952	301.231140	575.947021	398.503906	218.353134	569.309814	448.576660	305.920441	545.838379	392.502838	97.774307	555.668030	407.446167	122.389816	469.970215	321.424316	65.427299	507.931702	612.050964	78.974167	510.615356	535.407532	47.898750	577.115540	538.681274	47.754841	464.034119	445.018250	815.110840	189.160400	464.431000	729.837585	192.919617	500.492065	730.581421	201.503967	437.511719	645.450928	196.140259	431.541412	518.845337	216.692841	436.826782	496.326569	315.243835	381.882904	107.050430	221.694260	412.024384	126.414680	301.922424	325.144104	74.282486	264.463013	541.947815	47.192707	295.874420	528.709351	43.048801	181.181076	409.601532	394.164398	190.464233	423.074127	310.650146	207.702789	394.234528	227.136902	207.527985	444.398438	313.061890	240.046738	610.515747	81.617584	243.131439	
1251	6.2550	420.336517	1530.098145	594.186523	408.458710	1544.714478	197.274536	361.328125	1583.828369	394.417786	492.366913	1487.929199	392.978546	379.982544	1237.059814	681.023682	455.025269	960.703308	793.266541	387.566742	1244.486084	96.383324	445.815094	973.759827	-8.312199	327.757965	1028.558960	403.732269	474.959930	1094.035034	238.015503	480.876892	1100.352783	554.820496	524.042664	1036.459229	268.723633	536.857849	1033.959717	520.272522	349.777802	1068.184692	451.471924	348.333038	1075.823364	352.134369	423.867340	955.725464	576.635193	428.262970	943.749939	211.396667	436.784637	804.242432	592.541138	458.433624	718.499207	588.231323	495.368866	719.133789	579.933289	435.431671	635.208435	578.254028	438.966980	511.968109	559.077515	423.234131	499.955841	455.579987	399.084900	387.355896	593.585205	421.975342	301.232513	575.947510	398.494843	218.372375	569.311951	448.536713	305.904327	545.829285	392.507782	97.770332	555.662598	407.470276	122.399246	469.964691	321.391205	65.441612	507.920532	612.066406	78.965042	510.633362	535.383972	47.873123	577.134827	538.687134	47.751759	464.034119	444.996033	815.107849	189.152634	464.402588	729.839539	192.905792	500.495544	730.636230	201.456345	437.505157	645.447083	196.133743	431.513702	518.842773	216.703552	436.833954	496.337128	315.241425	381.882965	107.050407	221.694199	412.014984	126.431259	301.924530	325.137665	74.283516	264.457886	541.943726	47.196861	295.876343	528.717590	43.042095	181.176392	409.592438	394.162476	190.466476	423.098297	310.661652	207.705475	394.237183	227.140472	207.535110	444.393311	313.040283	240.036194	610.523621	81.620728	243.144043	
1252	6.2600	420.318970	1530.090332	594.191040	408.462006	1544.699829	197.270844	361.332214	1583.815063	394.402069	492.386139	1487.927612	393.005432	379.940033	1237.059326	681.027283	454.968658	960.682007	793.230713	387.542358	1244.470947	96.374466	445.780548	973.768127	-8.331744	327.747009	1028.549194	403.742279	474.946442	1094.037964	238.018875	480.828979	1100.373047	554.827698	524.048462	1036.452637	268.732880	536.826050	1033.954102	520.292419	349.755219	1068.170410	451.465485	348.337341	1075.821655	352.153107	423.869995	955.728149	576.632874	428.233002	943.759155	211.389618	436.762756	804.248047	592.532593	458.414368	718.494446	588.248779	495.404236	719.153625	579.957581	435.434631	635.210022	578.255615	438.950378	511.960571	559.088440	423.215485	499.960846	455.570190	399.086243	387.362610	593.592102	421.970581	301.237427	575.958252	398.488708	218.363831	569.315002	448.520477	305.893097	545.813293	392.519745	97.787613	555.655090	407.465454	122.399307	469.958984	321.421570	65.436089	507.928833	612.065308	78.984901	510.622498	535.385681	47.899700	577.126099	538.687134	47.751766	464.034119	444.966553	815.119385	189.147171	464.360321	729.839355	192.937210	500.477844	730.435791	201.402573	437.484528	645.436584	196.132568	431.055725	518.664856	216.567413	436.800629	496.341888	315.231018	381.902283	107.035728	221.700119	412.024384	126.414696	301.922394	325.129852	74.284775	264.456818	541.943726	47.195702	295.881317	528.740662	43.050510	181.178207	409.580688	394.158295	190.466385	423.074005	310.668152	207.687790	394.211578	227.156815	207.517197	444.367889	313.057404	240.039658	610.524170	81.618210	243.133789	
1253	6.2650	420.327606	1530.082153	594.194580	408.438538	1544.699707	197.259109	361.302734	1583.834961	394.422577	492.340088	1487.912720	392.988525	379.920166	1237.066772	681.009827	454.930756	960.647766	793.224976	387.493866	1244.486450	96.402855	445.737457	973.765503	-8.353265	327.721313	1028.559204	403.734863	474.918182	1094.035767	238.022507	480.807465	1100.357544	554.819641	524.014343	1036.451904	268.734894	536.804016	1033.952148	520.287048	349.749359	1068.173096	451.458252	348.310333	1075.817017	352.156036	423.824768	955.719666	576.634094	428.210205	943.765076	211.386185	436.738647	804.242676	592.547180	458.410858	718.487366	588.231445	495.427582	719.151367	579.986389	435.424072	635.221558	578.269897	438.947357	511.968414	559.090271	423.214294	499.960846	455.565063	399.069397	387.351562	593.574097	421.965149	301.234894	575.953003	398.485779	218.357712	569.298401	448.531952	305.911041	545.838074	392.492798	97.797447	555.652344	407.436218	122.408447	469.967773	321.424347	65.427444	507.931732	612.060303	78.961845	510.607727	535.377930	47.888515	577.132080	538.674255	47.752857	464.044769	444.939087	815.121155	189.135666	464.345459	729.843384	192.922394	500.442963	730.451660	201.428558	437.426636	645.452454	196.127869	431.507355	518.850830	216.701996	436.793823	496.336395	315.238068	381.893280	107.032631	221.686386	412.042419	126.402512	301.905212	325.136566	74.263657	264.459442	541.957825	47.206661	295.875183	528.729797	43.047684	181.170532	409.562134	394.146423	190.460342	423.074432	310.665680	207.689590	394.209961	227.137238	207.518600	444.372772	313.040344	240.018143	610.526978	81.628021	243.142242	
1254	6.2700	420.310669	1530.075073	594.193176	408.438110	1544.688843	197.273239	361.272736	1583.835693	394.443359	492.344971	1487.913574	392.980927	379.909729	1237.042969	680.995300	454.871399	960.632263	793.194641	387.480011	1244.480713	96.397385	445.708832	973.766479	-8.358424	327.699249	1028.558472	403.733215	474.914978	1094.031616	238.020081	480.779266	1100.375854	554.820190	523.984680	1036.466309	268.739563	536.787842	1033.956665	520.289124	349.724762	1068.156982	451.452911	348.284210	1075.819702	352.154541	423.795013	955.717773	576.616638	428.203552	943.743469	211.374985	436.732910	804.248169	592.550781	458.386597	718.491089	588.245544	495.452179	719.171265	580.042725	435.388550	635.216553	578.258057	438.933838	511.957825	559.067078	423.220825	499.970398	455.578705	399.056824	387.365845	593.594177	421.953583	301.227203	575.957520	398.470642	218.369644	569.302124	448.518860	305.908875	545.825134	392.502838	97.774330	555.667969	407.343170	122.484451	469.905670	321.415009	65.430107	507.937378	612.070984	79.013405	510.645905	535.414978	47.868103	577.138855	538.702454	47.766079	464.037140	444.911621	815.129822	189.120621	464.317871	729.821899	192.947464	500.441956	730.422119	201.429657	437.424438	645.460144	196.114059	431.038940	518.667969	216.555222	436.789185	496.344421	315.240082	381.887695	107.047150	221.695984	412.004639	126.387932	301.905731	325.138092	74.275597	264.453766	541.947937	47.186920	295.855713	528.729797	43.047688	181.170517	409.552277	394.160950	190.456161	423.044128	310.645477	207.697983	394.202789	227.147079	207.534897	444.346527	313.059326	240.020615	610.515808	81.629723	243.148560	
